<svg width="320" height="312" viewBox="0 0 320 312" fill="none" xmlns="http://www.w3.org/2000/svg">
<path fill-rule="evenodd" clip-rule="evenodd" d="M263.603 56.7029C261.161 51.059 240.811 40.3117 228.052 30.7604C215.294 21.2097 207.067 27.2945 202.219 30.4926C197.371 33.6901 158.952 46.7602 123.269 64.4213C103.374 74.2685 27.5959 92.1449 -11.4992 100.954L-11.4992 175.641C38.0564 153.581 110.676 114.668 124.139 105.629C143.564 92.5853 155.296 90.0974 165.482 92.1756C175.666 94.2538 191.491 97.6405 199.722 93.3669C207.956 89.0943 217.184 92.4594 225.602 90.5394C234.021 88.6183 238.234 85.3323 234.232 77.9163C230.231 70.5004 214.587 66.7521 217.23 65.4424C219.872 64.1333 224.129 56.8443 224.129 56.8443C224.129 56.8443 234.034 54.4864 237.317 56.8882C240.602 59.2895 250.248 63.3589 249.838 66.2753C249.428 69.1924 250.081 76.5241 250.081 76.5241C250.081 76.5241 239.147 79.7722 236.545 83.5445C233.946 87.3167 236.026 93.6849 242.272 92.4928C248.519 91.302 259.376 93.2161 262.188 87.9236C265.003 82.6296 264.853 72.6532 264.902 70.4618C264.95 68.2709 266.043 62.3467 263.603 56.7029Z" fill="#EFC88E"/>
<path fill-rule="evenodd" clip-rule="evenodd" d="M220.376 339.225L280.478 176.263L241.963 160.628L176.913 134.22L138.4 118.585L68.0254 277.377L54.9251 299.849L101.999 318.958L167.049 345.365L214.123 364.475L220.376 339.225Z" fill="#9355C8"/>
<path fill-rule="evenodd" clip-rule="evenodd" d="M54.9126 299.931L101.835 318.993L166.675 345.337L213.598 364.401L219.835 339.201L220.271 338.015L68.4874 276.348L67.9753 277.502L54.9126 299.931Z" fill="#7E3AB8"/>
<path fill-rule="evenodd" clip-rule="evenodd" d="M239.882 160.622L174.856 134.037L136.357 118.297L130.672 131.218L273.525 189.621L278.383 176.362L239.882 160.622Z" fill="#7E3AB8"/>
<path fill-rule="evenodd" clip-rule="evenodd" d="M245.617 171.342C246.692 168.704 245.427 165.704 242.789 164.639C240.153 163.574 237.145 164.848 236.07 167.486C234.994 170.124 236.26 173.126 238.896 174.19C241.533 175.256 244.542 173.98 245.617 171.342Z" fill="#642D93"/>
<path fill-rule="evenodd" clip-rule="evenodd" d="M244.857 169.69C245.57 168.117 244.646 166.295 242.791 165.617C240.935 164.94 238.853 165.667 238.139 167.239C237.425 168.812 238.348 170.636 240.204 171.313C242.059 171.99 244.142 171.263 244.857 169.69Z" fill="#61030F"/>
<path fill-rule="evenodd" clip-rule="evenodd" d="M173.683 142.497C174.759 139.859 173.492 136.857 170.857 135.794C168.221 134.729 165.211 136.003 164.136 138.64C163.062 141.278 164.328 144.28 166.964 145.345C169.599 146.41 172.609 145.135 173.683 142.497Z" fill="#642D93"/>
<path fill-rule="evenodd" clip-rule="evenodd" d="M173.067 139.825C173.782 138.253 172.858 136.429 171.003 135.752C169.147 135.075 167.064 135.801 166.35 137.373C165.636 138.946 166.562 140.77 168.417 141.448C170.271 142.124 172.353 141.398 173.067 139.825Z" fill="#797C01"/>
<path fill-rule="evenodd" clip-rule="evenodd" d="M242.418 169.632C251.682 140.055 278.867 87.8908 244.32 67.9774C212.614 49.7022 185.15 101.674 173.792 126.054C172.008 129.89 170.77 134.093 167.837 137.198C165.403 139.769 169.429 143.029 171.828 140.492C177.038 134.978 179.634 125.472 183.132 118.595C187.058 110.889 191.415 103.421 196.312 96.3263C205.479 83.0387 219.487 67.0721 236.175 70.6544C255.602 74.8281 257.566 97.1965 254.408 114.643C251.096 132.933 243.219 149.956 237.689 167.626C236.628 171.009 241.349 173.048 242.418 169.632Z" fill="#726658"/>
<mask id="mask0" mask-type="alpha" maskUnits="userSpaceOnUse" x="163" y="100" width="286" height="298">
<path fill-rule="evenodd" clip-rule="evenodd" d="M199.949 100.58L448.479 135.509L411.599 397.926L163.069 362.998L199.949 100.58Z" fill="white"/>
</mask>
<g mask="url(#mask0)">
<path fill-rule="evenodd" clip-rule="evenodd" d="M410.449 285.428L337.006 119.842L296.824 136.169L228.959 163.743L188.778 180.07L251.503 350.009L258.03 376.344L307.141 356.389L375.005 328.812L424.117 308.858L410.449 285.428Z" fill="#FFC810"/>
</g>
<mask id="mask1" mask-type="alpha" maskUnits="userSpaceOnUse" x="247" y="262" width="181" height="135">
<path fill-rule="evenodd" clip-rule="evenodd" d="M263.5 262.508L427.394 285.542L411.743 396.904L247.849 373.87L263.5 262.508Z" fill="white"/>
</mask>
<g mask="url(#mask1)">
<path fill-rule="evenodd" clip-rule="evenodd" d="M258.476 375.363L307.5 355.374L375.246 327.751L424.271 307.762L410.638 284.32L410.101 283.111L251.517 347.772L251.972 349.011L258.476 375.363Z" fill="#FFB01F"/>
</g>
<path fill-rule="evenodd" clip-rule="evenodd" d="M295.972 135.316L228.512 162.4L188.571 178.436L193.611 191.922L341.808 132.422L335.913 119.28L295.972 135.316Z" fill="#FFB01F"/>
<path fill-rule="evenodd" clip-rule="evenodd" d="M306.767 139.653C305.688 137.011 302.683 135.731 300.05 136.794C297.42 137.858 296.162 140.861 297.24 143.503C298.319 146.146 301.325 147.428 303.955 146.364C306.588 145.301 307.845 142.296 306.767 139.653Z" fill="#E69500"/>
<path fill-rule="evenodd" clip-rule="evenodd" d="M305.671 141.578C304.881 139.974 302.766 139.161 300.944 139.763C299.121 140.369 298.285 142.159 299.074 143.764C299.865 145.37 301.98 146.184 303.803 145.579C305.624 144.976 306.461 143.185 305.671 141.578Z" fill="#611A03"/>
<path fill-rule="evenodd" clip-rule="evenodd" d="M231.763 169.708C230.685 167.065 227.678 165.786 225.049 166.849C222.416 167.913 221.158 170.916 222.236 173.559C223.314 176.202 226.322 177.482 228.952 176.418C231.583 175.356 232.842 172.352 231.763 169.708Z" fill="#E69500"/>
<path fill-rule="evenodd" clip-rule="evenodd" d="M230.808 170.612C230.019 169.006 227.903 168.194 226.082 168.798C224.259 169.402 223.422 171.193 224.21 172.799C224.999 174.404 227.117 175.216 228.939 174.613C230.761 174.008 231.597 172.218 230.808 170.612Z" fill="#611A03"/>
<path fill-rule="evenodd" clip-rule="evenodd" d="M304.671 140.959C290.004 112.139 272.364 53.4059 231.556 63.7298C194.103 73.2051 211.39 131.999 220.656 158.468C222.116 162.63 224.259 166.669 224.312 171.124C224.352 174.815 229.796 174.313 229.756 170.672C229.662 162.761 224.66 153.775 222.269 146.096C219.594 137.484 217.423 128.736 215.934 119.874C213.141 103.278 212.055 81.1549 227.342 71.6638C245.138 60.6181 263.033 75.8746 273.433 91.1932C284.336 107.254 290.848 125.695 299.612 142.91C301.289 146.208 306.364 144.288 304.671 140.959Z" fill="#726658"/>
<path fill-rule="evenodd" clip-rule="evenodd" d="M142.307 165.809L101.86 388.055L116.752 397.633L314.494 350.709L308.446 378.652L323.947 179.09L142.307 165.809Z" fill="#BE1E2D"/>
<mask id="mask2" mask-type="alpha" maskUnits="userSpaceOnUse" x="112" y="154" width="238" height="271">
<path fill-rule="evenodd" clip-rule="evenodd" d="M146.594 154.346L349.895 182.918L315.931 424.585L112.63 396.013L146.594 154.346Z" fill="white"/>
</mask>
<g mask="url(#mask2)">
<path fill-rule="evenodd" clip-rule="evenodd" d="M315.65 381.446L324.156 179.3L275.583 175.659L193.546 169.506L144.975 165.863L123.515 367.035L116.975 396.624L176.341 401.075L258.378 407.227L313.631 410.993L315.65 381.446Z" fill="#F45172"/>
</g>
<path fill-rule="evenodd" clip-rule="evenodd" d="M274.075 175.298L192.702 169.423L144.525 165.945L142.715 182.689L321.478 195.595L322.255 178.776L274.075 175.298Z" fill="#C2004C"/>
<path fill-rule="evenodd" clip-rule="evenodd" d="M283.556 183.896C283.787 180.772 281.445 178.052 278.321 177.817C275.199 177.583 272.482 179.923 272.251 183.045C272.018 186.17 274.362 188.892 277.483 189.125C280.608 189.361 283.324 187.018 283.556 183.896Z" fill="#F10077"/>
<path fill-rule="evenodd" clip-rule="evenodd" d="M281.423 184.285C281.528 182.58 280.009 181.062 278.025 180.894C276.04 180.727 274.346 181.974 274.237 183.679C274.13 185.385 275.649 186.904 277.635 187.071C279.618 187.239 281.314 185.991 281.423 184.285Z" fill="#7C0335"/>
<path fill-rule="evenodd" clip-rule="evenodd" d="M191.849 177.253C192.081 174.13 189.737 171.409 186.618 171.175C183.494 170.941 180.776 173.282 180.543 176.403C180.312 179.527 182.657 182.248 185.778 182.483C188.899 182.718 191.617 180.376 191.849 177.253Z" fill="#F10077"/>
<path fill-rule="evenodd" clip-rule="evenodd" d="M189.86 176.621C189.969 174.916 188.448 173.397 186.463 173.23C184.478 173.062 182.782 174.309 182.675 176.015C182.566 177.721 184.089 179.239 186.073 179.407C188.057 179.574 189.753 178.327 189.86 176.621Z" fill="#7C0335"/>
<path fill-rule="evenodd" clip-rule="evenodd" d="M281.707 182.011C281.385 146.515 292.967 80.1309 247.07 70.4559C204.947 61.5771 192.984 127.85 189.08 158.406C188.469 163.213 188.602 168.229 186.44 172.64C184.646 176.294 190.332 178.445 192.103 174.842C195.942 167.009 195.413 155.734 196.843 147.013C198.453 137.237 200.633 127.571 203.55 118.123C209.012 100.432 218.928 78.129 238.916 76.2171C262.184 73.9952 272.474 97.7108 275.247 117.844C278.153 138.95 275.487 160.268 275.685 181.472C275.719 185.533 281.744 186.11 281.707 182.011Z" fill="#726658"/>
<path fill-rule="evenodd" clip-rule="evenodd" d="M216.56 66.0845C217.588 66.01 225.477 70.4633 229.647 71.6182C233.818 72.7737 239.797 71.3396 243.097 76.6353C246.396 81.9309 241.701 88.7085 218.456 91.6462C194.118 94.7217 189.865 94.5909 189.865 94.5909C189.865 94.5909 175.121 69.0713 216.56 66.0845Z" fill="#EFC88E"/>
</svg>
