<svg width="24" height="24" viewBox="0 0 24 24" fill="none" xmlns="http://www.w3.org/2000/svg">
<path fill-rule="evenodd" clip-rule="evenodd" d="M21 12C21 16.9706 16.9706 21 12 21C7.02944 21 3 16.9706 3 12C3 7.02944 7.02944 3 12 3C16.9706 3 21 7.02944 21 12ZM12 23C18.0751 23 23 18.0751 23 12C23 5.92487 18.0751 1 12 0.999999C5.92487 0.999999 1 5.92487 1 12C1 18.0751 5.92487 23 12 23ZM16.0494 13.4993L12.223 9.24776C12.1038 9.11535 11.8962 9.11535 11.777 9.24776L7.95062 13.4993C7.77687 13.6924 7.91388 14 8.17361 14L15.8264 14C16.0861 14 16.2231 13.6924 16.0494 13.4993Z" fill="#C2BCBC"/>
</svg>
