<svg width="244" height="300" viewBox="0 0 244 300" fill="none" xmlns="http://www.w3.org/2000/svg">
<mask id="mask0" mask-type="alpha" maskUnits="userSpaceOnUse" x="0" y="42" width="244" height="258">
<path fill-rule="evenodd" clip-rule="evenodd" d="M0.417969 42.3916H243.894V299.473H0.417969V42.3916Z" fill="white"/>
</mask>
<g mask="url(#mask0)">
<path fill-rule="evenodd" clip-rule="evenodd" d="M227.6 191.552L134.688 42.3916L98.2897 63.5019L36.815 99.1551L0.417969 120.265L83.6225 275.055L93.4479 299.473L137.935 273.672L199.407 238.016L243.895 212.216L227.6 191.552Z" fill="#FFC810"/>
</g>
<mask id="mask1" mask-type="alpha" maskUnits="userSpaceOnUse" x="83" y="189" width="161" height="110">
<path fill-rule="evenodd" clip-rule="evenodd" d="M83.3359 189.374H243.897V298.471H83.3359V189.374Z" fill="white"/>
</mask>
<g mask="url(#mask1)">
<path fill-rule="evenodd" clip-rule="evenodd" d="M93.7467 298.471L138.145 272.649L199.498 236.965L243.897 211.143L227.635 190.462L226.956 189.374L83.3359 272.904L83.9407 274.034L93.7467 298.471Z" fill="#FFB01F"/>
</g>
<path fill-rule="evenodd" clip-rule="evenodd" d="M97.3564 62.7988L36.2058 97.9259L0 118.724L6.66197 131L141 53.8297L133.562 42L97.3564 62.7988Z" fill="#FFB01F"/>
<path fill-rule="evenodd" clip-rule="evenodd" d="M108.316 65.5067C106.923 63.1137 103.863 62.29 101.477 63.667C99.0942 65.044 98.2907 68.099 99.6836 70.4914C101.077 72.8855 104.138 73.7104 106.521 72.3334C108.907 70.9564 109.709 67.9002 108.316 65.5067Z" fill="#E69500"/>
<path fill-rule="evenodd" clip-rule="evenodd" d="M107.521 67.5037C106.545 66.0697 104.404 65.5742 102.734 66.3989C101.065 67.2264 100.504 69.0588 101.478 70.495C102.455 71.9302 104.596 72.4268 106.267 71.5999C107.935 70.7746 108.496 68.9411 107.521 67.5037Z" fill="#611A03"/>
<path fill-rule="evenodd" clip-rule="evenodd" d="M40.3161 104.507C38.9237 102.113 35.8619 101.29 33.4798 102.667C31.0943 104.044 30.2908 107.099 31.6831 109.493C33.0755 111.887 36.1384 112.71 38.5211 111.333C40.906 109.957 41.7095 106.901 40.3161 104.507Z" fill="#E69500"/>
<path fill-rule="evenodd" clip-rule="evenodd" d="M39.521 105.505C38.5468 104.068 36.4042 103.574 34.7358 104.4C33.0661 105.227 32.5039 107.06 33.4775 108.496C34.4525 109.932 36.597 110.426 38.266 109.6C39.9344 108.774 40.4966 106.941 39.521 105.505Z" fill="#611A03"/>
<path fill-rule="evenodd" clip-rule="evenodd" d="M106.475 67.0442C88.4942 41.3373 63.6176 -12.7056 25.8071 2.72225C-8.89449 16.8818 15.6517 71.0304 28.127 95.2075C30.0914 99.0095 32.6957 102.6 33.3477 106.873C33.885 110.413 39.0469 109.196 38.5172 105.704C37.3587 98.1159 31.3396 90.1592 28.0064 83.1042C24.2739 75.192 21.0065 67.0812 18.3795 58.7683C13.4559 43.2019 9.42569 22.0953 22.8299 10.9133C38.4351 -2.10094 57.6865 10.1398 69.7463 23.4519C82.3894 37.4089 91.1346 54.2465 101.879 69.601C103.935 72.5428 108.552 70.0132 106.475 67.0442Z" fill="#726658"/>
</svg>
