<svg width="218" height="332" viewBox="0 0 218 332" fill="none" xmlns="http://www.w3.org/2000/svg">
<path fill-rule="evenodd" clip-rule="evenodd" d="M8.8499 105.839L0 324.81L15.5999 332L199.233 260.222L197.196 287.884L185.143 94.0732L8.8499 105.839Z" fill="#BE1E2D"/>
<mask id="mask0" mask-type="alpha" maskUnits="userSpaceOnUse" x="11" y="94" width="200" height="237">
<path fill-rule="evenodd" clip-rule="evenodd" d="M11.4219 94.2471H210.589V331H11.4219V94.2471Z" fill="white"/>
</mask>
<g mask="url(#mask0)">
<path fill-rule="evenodd" clip-rule="evenodd" d="M204.495 289.594L185.373 94.2471L138.218 97.3067L58.5749 102.472L11.4219 105.53L17.9668 301.692L15.6793 331L73.3123 327.261L152.955 322.095L206.545 318.253L204.495 289.594Z" fill="#F45172"/>
</g>
<path fill-rule="evenodd" clip-rule="evenodd" d="M15 331L72.6596 327.159L152.339 321.852L206.305 317.921L203.903 288.464L203.761 287L17.2422 299.423L17.2886 300.892L15 331Z" fill="#C2004C"/>
<path fill-rule="evenodd" clip-rule="evenodd" d="M136.72 97.1638L57.753 102.506L11 105.669L11.5219 122L185 110.262L183.476 94L136.72 97.1638Z" fill="#C2004C"/>
<path fill-rule="evenodd" clip-rule="evenodd" d="M146.988 104.144C146.788 101.112 144.171 98.8152 141.138 99.0117C138.107 99.2077 135.812 101.823 136.012 104.854C136.211 107.886 138.83 110.185 141.86 109.988C144.893 109.793 147.187 107.175 146.988 104.144Z" fill="#F10077"/>
<path fill-rule="evenodd" clip-rule="evenodd" d="M144.992 104.806C144.864 103.154 143.199 101.9 141.27 102.006C139.341 102.114 137.882 103.541 138.008 105.194C138.135 106.847 139.799 108.101 141.73 107.994C143.657 107.887 145.119 106.459 144.992 104.806Z" fill="#7C0335"/>
<path fill-rule="evenodd" clip-rule="evenodd" d="M57.988 110.144C57.7894 107.113 55.1695 104.815 52.1415 105.012C49.1091 105.208 46.8139 107.824 47.0119 110.854C47.2116 113.886 49.8315 116.184 52.8612 115.988C55.8914 115.793 58.1866 113.176 57.988 110.144Z" fill="#F10077"/>
<path fill-rule="evenodd" clip-rule="evenodd" d="M55.9923 109.806C55.8673 108.153 54.2004 106.899 52.2714 107.006C50.3417 107.114 48.8809 108.541 49.0077 110.193C49.1338 111.847 50.8019 113.1 52.7309 112.994C54.6594 112.886 56.1196 111.459 55.9923 109.806Z" fill="#7C0335"/>
<path fill-rule="evenodd" clip-rule="evenodd" d="M144.958 102.583C139.857 68.5259 142.021 3.18768 96.6211 0.0899175C54.9554 -2.75262 52.4106 62.53 52.7857 92.4124C52.8477 97.1124 53.6529 101.914 52.1715 106.443C50.9408 110.195 56.6944 111.495 57.9089 107.794C60.54 99.7507 58.5092 88.9902 58.7055 80.4189C58.9324 70.8098 59.7214 61.2295 61.2485 51.7593C64.1071 34.0257 70.6214 11.261 89.5656 6.72554C111.619 1.44937 124.707 22.8433 130.088 41.8104C135.73 61.6951 136.048 82.5344 139.101 102.878C139.682 106.775 145.548 106.516 144.958 102.583Z" fill="#726658"/>
</svg>
