<svg width="200" height="291" viewBox="0 0 200 291" fill="none" xmlns="http://www.w3.org/2000/svg">
<path fill-rule="evenodd" clip-rule="evenodd" d="M164.263 265.898L200 101.228L160.888 91.4074L94.8304 74.8207L55.7195 65L9.55127 227.051L0 250.408L47.8037 262.41L113.861 278.997L161.666 291L164.263 265.898Z" fill="#9355C8"/>
<path fill-rule="evenodd" clip-rule="evenodd" d="M0 250.489L47.6518 262.467L113.5 279.02L161.152 291L163.742 265.948L164 264.75L9.857 226L9.52093 227.178L0 250.489Z" fill="#7E3AB8"/>
<path fill-rule="evenodd" clip-rule="evenodd" d="M158.888 91.6837L92.8285 74.9234L53.7172 65L50 78.1804L195.123 115L198 101.607L158.888 91.6837Z" fill="#7E3AB8"/>
<path fill-rule="evenodd" clip-rule="evenodd" d="M165.846 101.207C166.523 98.5276 164.902 95.8162 162.224 95.1494C159.548 94.4821 156.83 96.1126 156.154 98.7911C155.476 101.471 157.098 104.184 159.774 104.851C162.451 105.518 165.169 103.886 165.846 101.207Z" fill="#642D93"/>
<path fill-rule="evenodd" clip-rule="evenodd" d="M164.893 99.7235C165.365 98.1166 164.232 96.4902 162.358 96.0891C160.484 95.6899 158.582 96.6694 158.108 98.2757C157.634 99.8838 158.767 101.511 160.642 101.911C162.515 102.31 164.418 101.331 164.893 99.7235Z" fill="#61030F"/>
<path fill-rule="evenodd" clip-rule="evenodd" d="M92.8461 83.2072C93.5236 80.5281 91.9009 77.8154 89.226 77.1492C86.5494 76.4825 83.8303 78.1124 83.1533 80.7909C82.4774 83.4706 84.0996 86.1839 86.7756 86.8506C89.4505 87.5179 92.1696 85.8869 92.8461 83.2072Z" fill="#642D93"/>
<path fill-rule="evenodd" clip-rule="evenodd" d="M91.8921 80.724C92.3666 79.1169 91.232 77.4897 89.3585 77.0892C87.485 76.6899 85.5817 77.6684 85.1073 79.2749C84.6342 80.8825 85.77 82.5097 87.6436 82.9108C89.5164 83.3101 91.4183 82.3316 91.8921 80.724Z" fill="#797C01"/>
<path fill-rule="evenodd" clip-rule="evenodd" d="M162.542 99.9957C167.448 70.3302 186.522 16.5466 150.644 2.0805C117.717 -11.1955 98.3496 42.4412 90.7299 67.3961C89.5339 71.3225 88.9116 75.5272 86.5134 78.9066C84.5224 81.7049 88.8296 84.2933 90.7918 81.5326C95.0525 75.5312 96.2634 66.0481 98.6949 58.97C101.426 51.0361 104.604 43.2739 108.35 35.7968C115.363 21.7939 126.665 4.56361 143.18 5.75196C162.407 7.13867 167.314 28.3625 166.636 45.5494C165.924 63.5673 160.655 80.9849 157.728 98.7068C157.165 102.101 161.976 103.421 162.542 99.9957Z" fill="#726658"/>
</svg>
