<svg width="87" height="262" viewBox="0 0 87 262" fill="none" xmlns="http://www.w3.org/2000/svg">
<path d="M44.5815 269.647C46.2457 241.957 46.105 214.057 46.1614 186.329C46.1897 159.777 45.5 133 45.5 107C46.5 106.282 43.9513 105.946 43.9433 106.282C43.9994 133.508 45.3659 160.598 45.5225 187.826C45.5746 215.221 44.4289 242.25 44.0791 269.635C44.0671 270.139 44.5695 270.151 44.5815 269.647Z" fill="#9C5765"/>
<path d="M44.4125 93.7206V91.4385L43.9562 92.5035L43.652 91.2863V93.7206L37.416 110H43.652H44.4125H50.4964L44.4125 93.7206Z" fill="#FEBA13"/>
<mask id="mask0" mask-type="alpha" maskUnits="userSpaceOnUse" x="0" y="0" width="87" height="101">
<path d="M43.5 100.415C19.6206 100.415 0 67.3997 0 43.5131C0 19.6266 19.6206 0 43.5 0C67.3794 0 87 19.6266 87 43.5131C87 67.3997 67.3794 100.415 43.5 100.415Z" fill="#72B8CC"/>
</mask>
<g mask="url(#mask0)">
<path d="M43.5 100.415C19.6206 100.415 0 67.3997 0 43.5131C0 19.6266 19.6206 0 43.5 0C67.3794 0 87 19.6266 87 43.5131C87 67.3997 67.3794 100.415 43.5 100.415Z" fill="#FEBA13"/>
<path opacity="0.05" d="M-2.1292 74.5505C-11.4072 78.0498 -11.8635 91.2863 -8.9736 99.5021C-6.08374 107.414 0.152269 113.804 7.45297 117.759C26.7694 128.105 50.3446 121.867 66.467 108.783C85.9355 92.9599 97.3428 68.6169 97.1907 43.6653C97.1907 21.6044 87.6086 -18.1051 58.4058 -13.3886C48.9757 -11.8672 49.2799 1.06501 55.9722 5.47719C68.4442 13.693 71.182 35.1452 70.2694 48.5339C69.3568 64.2047 61.4477 78.9627 49.8883 89.3084C41.3708 97.0678 28.5946 101.024 17.4914 96.7635C16.4268 96.4592 15.21 95.8506 13.3848 94.6335C11.7117 93.4163 9.88654 92.047 8.66976 90.3735C5.3236 85.9613 5.93199 79.7234 2.12954 75.7676C1.06486 74.7026 -0.760317 73.9419 -2.1292 74.5505Z" fill="black"/>
</g>
<path d="M19.9248 12.1715C3.04193 25.7123 -0.304225 54.6196 13.6888 71.3555C15.0577 73.0291 17.187 71.2033 17.0349 69.3776C15.6661 60.8576 14.9056 50.6639 17.187 42.1439C19.1643 34.0802 24.6398 25.8645 29.507 19.3223C33.7657 13.5408 24.7919 8.21577 19.9248 12.1715Z" fill="white"/>
</svg>
