<svg width="68" height="44" viewBox="0 0 68 44" fill="none" xmlns="http://www.w3.org/2000/svg">
<rect width="68" height="44" rx="4" fill="#E5BD23"/>
<path d="M15.146 31.2674C15.1097 34.7991 17.9389 37.7436 21.5267 37.7804C25.1145 37.8172 28.0029 34.9875 28.0397 31.3997C28.076 27.868 25.2469 24.9235 21.6591 24.8867C18.0712 24.8498 15.1823 27.7356 15.146 31.2674ZM13.24 31.2478C13.2872 26.6509 17.0251 22.9889 21.622 23.0361C26.2189 23.0833 29.8808 26.8213 29.8336 31.4181C29.7864 36.015 26.0485 39.677 21.4516 39.6298C16.8547 39.5826 13.1928 35.8447 13.24 31.2478Z" fill="white"/>
<path d="M22.2095 31.3399C22.1625 35.9221 18.4097 39.5986 13.8275 39.5515C9.24531 39.5045 5.56884 35.7517 5.61588 31.1695C5.66293 26.5873 9.41568 22.9108 13.9979 22.9579C18.5801 23.0049 22.2566 26.7577 22.2095 31.3399Z" fill="white"/>
<rect y="6" width="68" height="9" fill="white"/>
</svg>
