<svg width="75" height="147" viewBox="0 0 75 147" fill="none" xmlns="http://www.w3.org/2000/svg">
<path opacity="0.779891" fill-rule="evenodd" clip-rule="evenodd" d="M49.4241 147H4.57643L0 30H54L49.4241 147Z" fill="white"/>
<path fill-rule="evenodd" clip-rule="evenodd" d="M45.5787 142.099H8.42135L4.62964 53.6242H49.3704L45.5787 142.099Z" fill="#FF591D"/>
<path fill-rule="evenodd" clip-rule="evenodd" d="M53.0003 44.0005C40.8696 44.0005 31 34.1314 31 22.0003C31 9.86965 40.8696 0 53.0003 0C65.1309 0 75 9.86965 75 22.0003C75 34.1314 65.1309 44.0005 53.0003 44.0005Z" fill="#FF591D"/>
<path fill-rule="evenodd" clip-rule="evenodd" d="M69.3 27.1465C69.1465 27.1465 68.9883 27.1309 68.8296 27.0997L56.6605 23.0133C56.5148 22.967 55.7749 22.7125 55.7822 22.2863C55.7879 21.9851 56.1402 21.7483 56.891 21.5417L69.1377 17.6775H69.1372C69.1356 17.6775 69.3339 17.5963 69.6117 17.5963C70.1259 17.5963 71.0412 17.8779 71.3935 19.7647C71.4398 19.9338 72.5736 24.2242 70.9548 26.3347C70.7675 26.5788 70.2315 27.1465 69.3 27.1465ZM69.49 30.8827C69.4281 31.0466 67.8202 35.1829 65.2699 35.9375C65.0826 35.9926 64.8781 36.0218 64.6782 36.0218C64.262 36.0218 63.6516 35.8974 63.1016 35.3058L55.6651 24.8419C55.5829 24.7305 55.1713 24.1435 55.3472 23.7944C55.3992 23.6908 55.521 23.568 55.804 23.568C56.0257 23.568 56.3244 23.6398 56.7173 23.7876L68.8932 27.8677C68.9025 27.8688 69.4728 28.0077 69.7575 28.5973C70.0307 29.1655 69.9412 29.9346 69.49 30.8827ZM62.8684 36.795C62.7758 37.4194 62.2695 38.0048 61.3641 38.5361C61.259 38.61 58.5135 40.5067 56.1261 40.5067C55.7312 40.5067 55.3633 40.4531 55.0329 40.348C54.7435 40.2554 53.785 39.8568 53.5936 38.6074L53.3183 25.7733C53.3141 25.6583 53.3027 25.0578 53.5478 24.8028C53.6243 24.7232 53.721 24.681 53.8267 24.681C54.0879 24.681 54.3918 24.9386 54.7815 25.4918L62.5635 35.7064C62.5697 35.7127 62.9642 36.1472 62.8684 36.795ZM53.3188 18.4654L53.592 5.6557C53.785 4.38498 54.7435 3.98639 55.0329 3.89376C55.3633 3.78865 55.7312 3.73506 56.1261 3.73506C58.5135 3.73506 61.259 5.63176 61.375 5.71242C62.2695 6.23694 62.7758 6.82235 62.8684 7.44678C62.9642 8.09462 62.5697 8.52912 62.5536 8.54734L54.7779 18.7552C54.3918 19.3032 54.0879 19.5607 53.8267 19.5607C53.721 19.5607 53.6242 19.5186 53.5478 19.4384C53.3027 19.184 53.3141 18.5835 53.3188 18.4654ZM64.6782 8.22002C64.878 8.22002 65.0825 8.24916 65.2694 8.30432C67.8202 9.05884 69.4281 13.1952 69.4952 13.3711C69.9411 14.3072 70.0306 15.0763 69.7575 15.6445C69.4728 16.2341 68.9025 16.373 68.878 16.3782L56.712 20.4563C56.3244 20.602 56.0257 20.6743 55.804 20.6743C55.5209 20.6743 55.3992 20.551 55.3471 20.4474C55.1713 20.0983 55.5829 19.5113 55.6672 19.3973L63.088 8.95269C63.6516 8.34439 64.2619 8.22002 64.6782 8.22002ZM52.2973 19.4015C52.2219 19.4801 52.1261 19.5217 52.0205 19.5217C51.6495 19.5212 51.2571 18.9878 51.1822 18.8806L43.637 8.52495C43.0199 7.39733 43.5413 6.49971 43.7151 6.25098C45.2413 4.07172 49.6737 3.86201 49.8621 3.85421C50.0785 3.82715 50.2966 3.8131 50.4979 3.8131C51.253 3.8131 51.8118 4.00667 52.1589 4.38861C52.5653 4.8356 52.5195 5.37209 52.5175 5.39499L52.5185 18.226C52.5414 18.8457 52.4711 19.2214 52.2973 19.4015ZM52.5185 38.8624C52.5195 38.8697 52.5653 39.4062 52.1589 39.8532C51.8118 40.2351 51.253 40.4287 50.4979 40.4287C50.2966 40.4287 50.0785 40.4146 49.8496 40.3865C49.6737 40.3798 45.2413 40.1701 43.7151 37.9908C43.5413 37.7421 43.0199 36.8445 43.6256 35.734L51.1843 25.3586C51.2571 25.254 51.6495 24.7201 52.0205 24.7201C52.1261 24.7201 52.2219 24.7617 52.2973 24.8403C52.4711 25.0203 52.5414 25.396 52.518 26.021L52.5185 38.8624ZM41.4791 36.0218C41.2798 36.0218 41.0748 35.9926 40.8874 35.9375C38.3366 35.1829 36.7298 31.0466 36.6621 30.8713C36.2167 29.9346 36.1261 29.1655 36.4004 28.5973C36.685 28.0077 37.2553 27.8688 37.2793 27.8636L49.4463 23.7855C49.8329 23.6398 50.1311 23.568 50.3533 23.568C50.6369 23.568 50.7581 23.6908 50.8101 23.7944C50.9871 24.1435 50.5749 24.7305 50.4912 24.8445L43.0693 35.2891C42.5068 35.8974 41.8954 36.0218 41.4791 36.0218ZM35.2072 26.0137C33.5888 23.9031 34.7227 19.6123 34.7716 19.4312C35.1218 17.5568 36.0366 17.2753 36.5507 17.2753C36.8317 17.2753 37.031 17.3581 37.0399 17.3617L49.2772 21.2217C50.0223 21.4273 50.3751 21.664 50.3803 21.9653C50.3881 22.3915 49.6471 22.6459 49.4988 22.6928L37.3526 26.7734C37.1741 26.8099 37.0159 26.8255 36.8629 26.8255C35.931 26.8255 35.3955 26.2578 35.2072 26.0137ZM36.6673 13.3591C36.7297 13.1952 38.3366 9.05884 40.8874 8.30432C41.0747 8.24916 41.2798 8.22002 41.4791 8.22002C41.8954 8.22002 42.5068 8.34439 43.0558 8.93604L50.4922 19.3999C50.5749 19.5113 50.9871 20.0983 50.8101 20.4474C50.7581 20.551 50.6369 20.6743 50.3533 20.6743C50.1311 20.6743 49.8329 20.602 49.44 20.4542L37.2647 16.374C37.2553 16.373 36.685 16.2341 36.4004 15.6445C36.1261 15.0763 36.2167 14.3072 36.6673 13.3591ZM53.0003 1.12387C41.4005 1.12387 31.9633 10.5611 31.9633 22.1604C31.9633 33.7603 41.4005 43.1975 53.0003 43.1975C64.5997 43.1975 74.0369 33.7603 74.0369 22.1604C74.0369 10.5611 64.5997 1.12387 53.0003 1.12387Z" fill="white"/>
</svg>
