<svg width="279" height="94" viewBox="0 0 279 94" fill="none" xmlns="http://www.w3.org/2000/svg">
<path d="M194.831 19.1525L196.28 15.0775C204.024 6.99878 195.684 6.10162 195.684 6.10162C189.201 7.78979 187.751 10.8757 186.496 13.5468C186.194 14.1893 185.903 14.8078 185.556 15.377C182.311 20.7075 175.221 27.8971 173.079 30.0185C168.635 31.458 164.279 33.1653 164.225 33.1869C161.755 33.8972 160.017 34.0988 158.981 33.8053C158.924 33.7299 158.87 33.656 158.82 33.5839L158.513 33.2887C156.829 32.1656 159.869 28.6198 160.535 28.1052C162.795 26.3592 164.828 24.9465 166.593 23.7205C169.844 21.4622 172.182 19.8378 173.344 17.9318C180.136 6.79212 168.048 7.4112 164.11 9.55397C163.18 10.0595 162.403 10.668 161.443 11.4194C158.887 13.4211 155.035 16.4372 143.557 21.2231C113.927 33.5777 112.876 47.5536 112.876 47.5536C110.796 48.456 108.408 49.1784 105.863 49.7557C105.601 49.8152 102.285 50.054 99.0933 50.2838C96.1562 50.4953 93.3249 50.6992 93.0779 50.7487L90.1178 86.6793C90.2449 86.6474 90.6542 86.5087 91.3004 86.2898C94.1052 85.3394 101.373 82.8769 109.415 81.066C119.295 78.7705 123.343 77.3304 129.611 73.9772C135.401 70.8795 157.173 61.4288 164.407 61.0179C174.056 60.4687 176.303 57.2308 178.45 54.1362C178.73 53.7326 179.009 53.3315 179.301 52.9391C181.589 49.8738 190.918 45.1594 190.918 45.1594C198.663 42.4666 204.62 36.782 204.62 36.782L218.025 19.4279C221.599 18.5303 222.493 17.0342 222.493 17.0342L222.801 16.0859C222.835 15.5157 222.809 14.9924 222.724 14.5174C222.838 15.0399 222.875 15.624 222.837 16.2682L224.702 13.457C224.924 11.5144 224.52 9.9453 223.502 8.79282C221.634 6.67804 218.255 6.57092 217.596 6.57092L217.474 6.57223C217.473 6.57241 217.467 6.57342 217.456 6.5753C217.136 6.62913 212.569 7.39694 206.903 9.67292C201.355 11.9022 195.138 18.8975 194.992 19.0626L194.99 19.0651L194.954 19.1057L194.904 19.1245C194.88 19.1338 194.855 19.1431 194.831 19.1525Z" fill="#F7DBB2"/>
<path fill-rule="evenodd" clip-rule="evenodd" d="M83 92H96V48H83V92Z" fill="#C8BBB8"/>
<path fill-rule="evenodd" clip-rule="evenodd" d="M93 84.5C93 86.4329 91.4334 88 89.5 88C87.5666 88 86 86.4329 86 84.5C86 82.5671 87.5666 81 89.5 81C91.4334 81 93 82.5671 93 84.5Z" fill="white"/>
<path fill-rule="evenodd" clip-rule="evenodd" d="M0 94H83V46H0V94Z" fill="#443C3A"/>
<path fill-rule="evenodd" clip-rule="evenodd" d="M275.518 6.75557C273.017 8.27881 262.896 8.38505 262.896 8.38505H182.808H104.462C104.462 8.38505 94.255 8.57786 91.6217 6.97418C89.6091 5.74824 87.791 -0.000183105 87.791 -0.000183105H278.947C278.947 -0.000183105 277.531 5.52964 275.518 6.75557Z" fill="#726658"/>
</svg>
