<svg width="271" height="181" viewBox="0 0 271 181" fill="none" xmlns="http://www.w3.org/2000/svg">
<path fill-rule="evenodd" clip-rule="evenodd" d="M266.266 24.1505C263.063 18.9013 241.415 11.0908 227.451 3.40801C213.488 -4.27416 206.187 2.89646 201.832 6.73813C197.476 10.5792 161.25 28.8691 128.372 51.3244C110.041 63.8446 37.4886 92.0933 0 106.258L10.3943 180.217C56.3976 151.476 122.895 102.834 134.968 92.0096C152.389 76.3898 163.661 72.2932 174.037 72.9337C184.412 73.5742 200.554 74.7256 208.11 69.3481C215.668 63.9712 225.276 66.0192 233.344 62.9463C241.414 59.8722 245.129 56.0317 240.134 49.2449C235.139 42.4581 219.126 40.9235 221.561 39.2587C223.995 37.5945 227.196 29.784 227.196 29.784C227.196 29.784 236.676 26.0707 240.262 27.9921C243.849 29.913 253.967 32.6002 253.967 35.5454C253.967 38.4911 255.634 45.6605 255.634 45.6605C255.634 45.6605 245.259 50.3987 243.207 54.4965C241.159 58.5937 244.104 64.6105 250.124 62.5607C256.144 60.5121 267.162 60.8965 269.211 55.2641C271.261 49.6299 269.724 39.7715 269.468 37.5945C269.21 35.4182 269.468 29.3996 266.266 24.1505Z" fill="#EFC88E"/>
</svg>
