<svg width="27" height="27" viewBox="0 0 27 27" fill="none" xmlns="http://www.w3.org/2000/svg">
<path fill-rule="evenodd" clip-rule="evenodd" d="M16.8895 24.6115C15.8417 25.9146 13.9381 26.1184 12.6387 25.0677L2.60267 16.9482C1.30215 15.8969 1.0994 13.9887 2.14676 12.6862L10.2446 2.62222C11.293 1.31919 13.196 1.11536 14.4949 2.16611L24.533 10.2856C25.8309 11.3363 26.0352 13.2445 24.9874 14.5481L16.8895 24.6115Z" fill="#F6F6F6"/>
<path fill-rule="evenodd" clip-rule="evenodd" d="M16.2319 24.0797C17.1763 22.9494 18.1365 21.8318 19.0588 20.6841C19.9775 19.5328 20.8725 18.363 21.7718 17.1959L23.1206 15.4457L23.7903 14.5666C23.9978 14.2896 24.2819 13.9362 24.3828 13.7608C24.6396 13.3252 24.7174 12.8012 24.6181 12.3187C24.5178 11.8336 24.2389 11.4102 23.856 11.1263L16.8197 5.78354L15.0664 4.44101L14.1924 3.76684L13.7548 3.42923C13.6913 3.38236 13.5888 3.29703 13.5573 3.28123L13.4365 3.2017C13.1077 3.01104 12.718 2.95152 12.3508 3.02105C11.9826 3.09215 11.6617 3.29493 11.4364 3.58619C9.61479 5.90099 7.78533 8.20948 5.92279 10.4911L3.22666 13.7771C2.79858 14.3765 2.88262 15.323 3.48772 15.847L10.1616 21.6396L11.8314 23.0859L12.6676 23.8079C12.9307 24.0334 13.2695 24.3346 13.4292 24.4521C13.8383 24.7444 14.3657 24.8692 14.8794 24.8039C15.3936 24.7402 15.88 24.4826 16.2319 24.0797ZM17.5471 25.1436C16.9725 25.8889 16.1085 26.4203 15.1698 26.5889C14.2338 26.7653 13.2233 26.5846 12.3949 26.0753C11.9437 25.782 11.7315 25.5929 11.4169 25.3627L10.5366 24.6959L8.77332 23.3655L1.71655 18.0486C0.865638 17.3902 0.261598 16.3905 0.0725068 15.315C-0.124463 14.2432 0.0809108 13.0808 0.676022 12.1428C0.748507 12.0259 0.831497 11.9153 0.911335 11.8031C1.0001 11.6798 1.03319 11.644 1.09727 11.5597L1.43711 11.1242L2.11679 10.2536L3.4877 8.52127C5.31768 6.21331 7.18127 3.93221 9.05222 1.65744C9.75344 0.801567 10.7829 0.214307 11.8676 0.0536666C12.9506 -0.118561 14.0983 0.127403 15.0065 0.738891C15.1199 0.814207 15.2266 0.898478 15.3348 0.980115C15.454 1.07018 15.4887 1.10757 15.5696 1.17394L15.9908 1.53103L16.8333 2.2447L18.5131 3.6794L25.209 9.44456C25.9701 10.0887 26.478 11.0204 26.6098 11.9922C26.7506 12.9628 26.5253 13.9809 25.9822 14.7857C25.6738 15.2239 25.4679 15.423 25.2216 15.7248L24.5067 16.567L23.0859 18.2587C22.1384 19.3864 21.1877 20.5114 20.2595 21.6548C19.3351 22.8014 18.449 23.9791 17.5471 25.1436Z" fill="#ECEDED"/>
</svg>
