<svg width="25" height="25" viewBox="0 0 25 25" fill="none" xmlns="http://www.w3.org/2000/svg">
<path fill-rule="evenodd" clip-rule="evenodd" d="M23.1224 15.2926C23.6014 16.8632 22.7195 18.5265 21.1532 19.0068L9.0498 22.7157C7.48245 23.1961 5.8237 22.3118 5.34519 20.7412L1.64532 8.60413C1.16629 7.03301 2.04871 5.37025 3.61554 4.88991L15.7195 1.18095C17.2863 0.700083 18.944 1.58492 19.4235 3.15551L23.1224 15.2926Z" fill="#F6F6F6"/>
<path fill-rule="evenodd" clip-rule="evenodd" d="M22.3145 15.5402C21.9185 14.1487 21.5424 12.7509 21.1201 11.3678C20.692 9.98575 20.2366 8.61267 19.7854 7.23801L19.1084 5.17602L18.7638 4.14686C18.653 3.82558 18.5222 3.39791 18.4366 3.22252C18.2265 2.77747 17.8478 2.4288 17.406 2.24656C16.9622 2.0638 16.4711 2.05906 16.0341 2.21391L7.83385 5.01064L5.78116 5.70165L4.75324 6.04295L4.24007 6.2136C4.16653 6.2394 4.04047 6.27627 4.01106 6.29313L3.8829 6.34738C3.21635 6.66392 2.86864 7.48713 3.10973 8.15551C3.98427 10.9127 4.84884 13.6742 5.67191 16.4477L6.85005 20.4506C7.09324 21.1163 7.8911 21.5629 8.63748 21.3639L17.0058 19.1186L19.0968 18.5555L20.1421 18.2722C20.4688 18.1821 20.9021 18.072 21.0818 18.0073C22.0125 17.6754 22.6003 16.5515 22.3145 15.5402ZM23.9302 15.0451C24.2196 15.9263 24.175 16.9275 23.7931 17.7892C23.4197 18.6524 22.7148 19.3803 21.8423 19.7764C21.3533 19.9844 21.0844 20.0524 20.7246 20.1825L19.6998 20.5333L17.6519 21.239L9.46109 24.0684C8.45261 24.4018 7.30388 24.3433 6.32271 23.9025C5.33944 23.4706 4.50481 22.6584 4.06938 21.6509C4.01475 21.5261 3.9701 21.3976 3.92283 21.2696C3.87188 21.1289 3.86085 21.0826 3.82828 20.9841L3.66178 20.4674L3.32982 19.4351L2.68008 17.3647C1.81657 14.6032 0.994022 11.8297 0.180406 9.05298C-0.128968 8.00434 -0.0375742 6.83456 0.432527 5.85597C0.892123 4.87316 1.72833 4.06838 2.72946 3.6623C2.85342 3.61121 2.98105 3.57066 3.10816 3.52694C3.24788 3.47954 3.2962 3.47164 3.39495 3.44214L3.91653 3.29572L4.95863 3.00288L7.04546 2.4251L15.4043 0.147695C16.3493 -0.119338 17.3898 -0.019793 18.2543 0.409986C19.1221 0.831866 19.8254 1.57977 20.181 2.46882C20.2671 2.69372 20.3401 2.93125 20.3785 3.08399L20.5229 3.60752L20.8113 4.65406L21.3996 6.74291C21.7914 8.13548 22.179 9.52963 22.5945 10.9154C23.0152 12.2995 23.4827 13.6689 23.9302 15.0451Z" fill="#ECEDED"/>
</svg>
