<svg width="55" height="120" viewBox="0 0 55 120" fill="none" xmlns="http://www.w3.org/2000/svg">
<g clip-path="url(#clip0)">
<path d="M46.3504 119.906H8.64956C3.94871 119.906 0.0940094 116.082 0.0940094 111.314V8.68607C0.0940094 3.96538 3.9017 0.0944138 8.64956 0.0944138H46.3034C51.0043 0.0944138 54.859 3.91817 54.859 8.68607V111.314C54.906 116.082 51.0513 119.906 46.3504 119.906Z" fill="#443B3A" stroke="black" stroke-width="0.4761" stroke-miterlimit="10"/>
<rect x="4" y="4" width="47" height="112" rx="5" fill="#F2F2F2"/>
<path d="M42 82H12.1675V84H42V82Z" fill="#E0C8F4"/>
<path d="M42 70H12.1675V72H42V70Z" fill="#E0C8F4"/>
<path d="M41.8325 88H12V90H41.8325V88Z" fill="#E0C8F4"/>
<path d="M41.8325 76H12V78H41.8325V76Z" fill="#E0C8F4"/>
<path d="M33.8354 94H12V96H33.8354V94Z" fill="#E0C8F4"/>
<g clip-path="url(#clip1)">
<path d="M42.2938 25.4371C37.286 22.8076 30.609 22.2945 24.5097 24.0903C18.3463 25.886 12.9533 29.9905 10.1926 34.9929C9.7432 35.7625 10.0642 36.7886 10.8346 37.2375C11.2198 37.4299 11.6693 37.4941 12.1187 37.3658C12.5039 37.2375 12.8891 36.981 13.0817 36.5962C15.4572 32.2993 20.0798 28.8361 25.4086 27.2328C30.7374 25.6936 36.4514 26.0784 40.6887 28.323C41.5234 28.772 42.4864 28.4513 42.9358 27.6176" fill="#443B3A"/>
<path d="M39.2763 31.2732C35.3599 29.5416 30.8015 29.3492 26.4358 30.6318C22.0058 31.9145 18.2821 34.6081 15.9066 38.1995C15.393 38.9691 15.5856 39.9952 16.356 40.5083C16.8054 40.7648 17.2549 40.829 17.7043 40.7007C18.0895 40.5724 18.4105 40.38 18.6031 39.9952C20.5292 37.0451 23.6109 34.8005 27.2704 33.7743C30.8658 32.6841 34.6537 32.8765 37.8638 34.2874C38.6984 34.6722 39.6615 34.2874 40.0467 33.4537C40.4961 32.62 40.1109 31.658 39.2763 31.2732Z" fill="#443B3A"/>
<path d="M36.2588 37.1093C33.6265 36.019 30.8016 35.8907 28.1693 36.6603C25.4086 37.4941 23.0973 39.2257 21.428 41.6627C20.9144 42.4323 21.107 43.4584 21.8774 43.9715C22.3268 44.228 22.8405 44.2922 23.2899 44.1639C23.6751 44.0356 23.9961 43.8432 24.1887 43.5226C25.4086 41.6627 27.142 40.4442 29.0681 39.8029C30.9942 39.2257 32.9844 39.3539 34.9747 40.1235C35.8093 40.4442 36.7724 40.0594 37.0934 39.2257C37.5428 38.3919 37.0934 37.4299 36.2588 37.1093Z" fill="#443B3A"/>
<path d="M32.121 49.8311C34.2299 49.2107 35.436 47.0001 34.815 44.8934C34.1939 42.7868 31.9809 41.5819 29.8719 42.2023C27.763 42.8227 26.5569 45.0334 27.1779 47.14C27.799 49.2466 30.012 50.4515 32.121 49.8311Z" fill="#443B3A"/>
</g>
</g>
<defs>
<clipPath id="clip0">
<rect width="55" height="120" fill="white"/>
</clipPath>
<clipPath id="clip1">
<rect width="33" height="27" fill="white" transform="translate(10 23)"/>
</clipPath>
</defs>
</svg>
