<svg width="44" height="44" viewBox="0 0 44 44" fill="none" xmlns="http://www.w3.org/2000/svg">
<path fill-rule="evenodd" clip-rule="evenodd" d="M22.0003 44.0005C9.86965 44.0005 0 34.1314 0 22.0003C0 9.86965 9.86965 0 22.0003 0C34.1309 0 44 9.86965 44 22.0003C44 34.1314 34.1309 44.0005 22.0003 44.0005Z" fill="#FF591D"/>
<path fill-rule="evenodd" clip-rule="evenodd" d="M38.3 27.1465C38.1465 27.1465 37.9883 27.1309 37.8296 27.0996L25.6605 23.0133C25.5148 22.9669 24.7749 22.7125 24.7822 22.2863C24.7879 21.985 25.1402 21.7483 25.891 21.5417L38.1377 17.6775H38.1372C38.1356 17.6775 38.3339 17.5963 38.6117 17.5963C39.1259 17.5963 40.0412 17.8778 40.3935 19.7647C40.4398 19.9338 41.5736 24.2241 39.9548 26.3347C39.7675 26.5788 39.2315 27.1465 38.3 27.1465ZM38.49 30.8827C38.4281 31.0466 36.8202 35.1829 34.2699 35.9374C34.0826 35.9926 33.8781 36.0217 33.6782 36.0217C33.262 36.0217 32.6516 35.8974 32.1016 35.3057L24.6651 24.8418C24.5829 24.7305 24.1713 24.1435 24.3472 23.7943C24.3992 23.6908 24.521 23.568 24.804 23.568C25.0257 23.568 25.3244 23.6398 25.7173 23.7876L37.8932 27.8677C37.9025 27.8688 38.4728 28.0077 38.7575 28.5973C39.0307 29.1655 38.9412 29.9346 38.49 30.8827ZM31.8684 36.795C31.7758 37.4194 31.2695 38.0048 30.3641 38.5361C30.259 38.61 27.5135 40.5067 25.1261 40.5067C24.7312 40.5067 24.3633 40.4531 24.0329 40.348C23.7435 40.2554 22.785 39.8568 22.5936 38.6074L22.3183 25.7732C22.3141 25.6582 22.3027 25.0578 22.5478 24.8028C22.6243 24.7232 22.721 24.681 22.8267 24.681C23.0879 24.681 23.3918 24.9386 23.7815 25.4917L31.5635 35.7064C31.5697 35.7126 31.9642 36.1471 31.8684 36.795ZM22.3188 18.4654L22.592 5.65567C22.785 4.38496 23.7435 3.98636 24.0329 3.89374C24.3633 3.78863 24.7312 3.73503 25.1261 3.73503C27.5135 3.73503 30.259 5.63174 30.375 5.71239C31.2695 6.23691 31.7758 6.82232 31.8684 7.44675C31.9642 8.0946 31.5697 8.5291 31.5536 8.54731L23.7779 18.7552C23.3918 19.3031 23.0879 19.5607 22.8267 19.5607C22.721 19.5607 22.6242 19.5186 22.5478 19.4384C22.3027 19.184 22.3141 18.5835 22.3188 18.4654ZM33.6782 8.22C33.878 8.22 34.0825 8.24914 34.2694 8.30429C36.8202 9.05881 38.4281 13.1951 38.4952 13.371C38.9411 14.3072 39.0306 15.0762 38.7575 15.6445C38.4728 16.234 37.9025 16.373 37.878 16.3782L25.712 20.4562C25.3244 20.6019 25.0257 20.6743 24.804 20.6743C24.5209 20.6743 24.3992 20.5509 24.3471 20.4474C24.1713 20.0982 24.5829 19.5113 24.6672 19.3973L32.088 8.95266C32.6516 8.34436 33.2619 8.22 33.6782 8.22ZM21.2973 19.4015C21.2219 19.48 21.1261 19.5217 21.0205 19.5217C20.6495 19.5211 20.2571 18.9878 20.1822 18.8806L12.637 8.52492C12.0199 7.3973 12.5413 6.49968 12.7151 6.25095C14.2413 4.07169 18.6737 3.86198 18.8621 3.85418C19.0785 3.82712 19.2966 3.81307 19.4979 3.81307C20.253 3.81307 20.8118 4.00664 21.1589 4.38859C21.5653 4.83558 21.5195 5.37207 21.5175 5.39496L21.5185 18.226C21.5414 18.8457 21.4711 19.2214 21.2973 19.4015ZM21.5185 38.8624C21.5195 38.8697 21.5653 39.4062 21.1589 39.8531C20.8118 40.2351 20.253 40.4287 19.4979 40.4287C19.2966 40.4287 19.0785 40.4146 18.8496 40.3865C18.6737 40.3797 14.2413 40.17 12.7151 37.9908C12.5413 37.742 12.0199 36.8444 12.6256 35.734L20.1843 25.3585C20.2571 25.254 20.6495 24.7201 21.0205 24.7201C21.1261 24.7201 21.2219 24.7617 21.2973 24.8403C21.4711 25.0203 21.5414 25.396 21.518 26.021L21.5185 38.8624ZM10.4791 36.0217C10.2798 36.0217 10.0748 35.9926 9.88742 35.9374C7.33662 35.1829 5.72976 31.0466 5.66211 30.8712C5.21668 29.9346 5.12614 29.1655 5.40037 28.5973C5.685 28.0077 6.25532 27.8688 6.27925 27.8636L18.4463 23.7855C18.8329 23.6398 19.1311 23.568 19.3533 23.568C19.6369 23.568 19.7581 23.6908 19.8101 23.7943C19.9871 24.1435 19.5749 24.7305 19.4912 24.8444L12.0693 35.2891C11.5068 35.8974 10.8954 36.0217 10.4791 36.0217ZM4.20716 26.0137C2.58885 23.9031 3.72271 19.6122 3.77162 19.4311C4.12183 17.5568 5.03662 17.2753 5.55073 17.2753C5.83173 17.2753 6.03102 17.358 6.03987 17.3617L18.2772 21.2217C19.0223 21.4272 19.3751 21.664 19.3803 21.9653C19.3881 22.3915 18.6471 22.6459 18.4988 22.6928L6.3526 26.7734C6.17412 26.8098 6.01593 26.8254 5.86295 26.8254C4.93098 26.8254 4.39553 26.2577 4.20716 26.0137ZM5.66731 13.3591C5.72975 13.1951 7.33662 9.05881 9.88742 8.30429C10.0747 8.24914 10.2798 8.22 10.4791 8.22C10.8954 8.22 11.5068 8.34436 12.0558 8.93601L19.4922 19.3999C19.5749 19.5113 19.9871 20.0982 19.8101 20.4474C19.7581 20.5509 19.6369 20.6743 19.3533 20.6743C19.1311 20.6743 18.8329 20.6019 18.44 20.4542L6.26468 16.374C6.25531 16.373 5.685 16.234 5.40036 15.6445C5.12613 15.0762 5.21668 14.3072 5.66731 13.3591ZM22.0003 1.12384C10.4005 1.12384 0.963257 10.5611 0.963257 22.1604C0.963257 33.7602 10.4005 43.1975 22.0003 43.1975C33.5997 43.1975 43.0369 33.7602 43.0369 22.1604C43.0369 10.5611 33.5997 1.12384 22.0003 1.12384Z" fill="white"/>
</svg>
