<svg width="57" height="126" viewBox="0 0 57 126" fill="none" xmlns="http://www.w3.org/2000/svg">
<path d="M0.0759526 9.73831C0.318466 10.4237 1.06913 10.7821 1.7526 10.5389L23.3944 2.83885C26.2812 2.17076 28.2417 3.11125 29.6343 5.16787C30.0331 5.7568 30.3506 6.39574 30.5913 7.0347C30.6752 7.25733 30.743 7.46245 30.8475 7.83432L37.3023 40.4919H39.9793L33.416 7.28655C33.3517 7.00024 33.2359 6.60234 33.0481 6.10393C32.7388 5.28305 32.3308 4.46215 31.807 3.68856C29.828 0.765889 26.784 -0.677915 22.651 0.309018L0.87438 8.05708C0.190907 8.30026 -0.166561 9.05297 0.0759526 9.73831Z" fill="#F45172"/>
<path d="M55.4944 125.759C56.2058 125.618 56.6682 124.925 56.5272 124.212L39.9793 40.4919H37.3024L53.951 124.724C54.092 125.437 54.783 125.901 55.4944 125.759Z" fill="#C2004C"/>
</svg>
