<svg width="69" height="110" viewBox="0 0 69 110" fill="none" xmlns="http://www.w3.org/2000/svg">
<path d="M0.81034 3.78225C0.81034 3.78225 20.2752 35.2895 31.8337 54.0611C32.1674 53.1037 31.8337 59 29.0659 61.8474C17.9949 43.298 -1.83748 7.21181 0.81034 3.78225Z" fill="#D65946"/>
<path fill-rule="evenodd" clip-rule="evenodd" d="M68.0314 108.864C69.6854 108.362 68.7361 105.916 67.1385 106.41C64.1613 107.312 61.1167 105.938 59.1604 103.679C59.2095 103.616 59.2603 103.566 59.3112 103.517C59.3621 103.467 59.4129 103.418 59.462 103.354C62.8863 100.166 63.5756 94.0217 60.8494 88.4936C58.9699 84.6258 55.8698 81.9453 52.6364 80.8815C46.4027 78.7921 43.9664 74.388 41.7037 70.2976C41.1603 69.3153 40.6269 68.3511 40.0534 67.4414C39.8144 67.0666 38.4126 64.7784 36.7873 62.1257C34.9827 59.1802 32.9027 55.7852 31.8337 54.0611L29.0659 61.8474C30.3279 63.9687 31.4122 65.4063 32.1868 66.4333C33.1113 67.6589 33.5948 68.2999 33.4132 68.8208C33.8583 69.5483 34.2905 70.1774 34.6597 70.7147C34.7737 70.8808 34.8818 71.0381 34.9824 71.1868C41.2713 80.3062 41.4515 86.9658 41.4515 86.9658C40.5923 90.048 40.97 93.8259 42.6928 97.3714C45.5684 103.166 51.1525 106.436 55.8766 105.307C56.2635 105.199 56.5941 105.099 56.9246 104.999L56.9254 104.999C59.5425 108.37 63.8437 110.152 68.0314 108.864ZM44.3257 96.6213C41.8197 91.4643 42.9694 85.7738 46.9566 83.8262C50.9437 81.8786 56.2146 84.5047 58.7132 89.6056C61.2192 94.7626 60.0768 100.509 56.0823 102.401C52.0952 104.348 46.8316 101.778 44.3257 96.6213Z" fill="#D65946"/>
</svg>
