<svg width="59" height="112" viewBox="0 0 59 112" fill="none" xmlns="http://www.w3.org/2000/svg">
<path fill-rule="evenodd" clip-rule="evenodd" d="M26.5 63C33.3368 42.4596 44.5565 3.06243 41.28 0.347786C41.28 0.347786 29.2735 34.8709 21.8337 56.0611L19.0659 63.8474C18.0783 66.681 17.2782 68.9411 16.7605 70.4034C16.5129 71.1027 16.33 71.6196 16.222 71.9293C15.8764 72.9065 15.586 73.8905 15.2965 74.8719C14.0424 79.1227 12.8028 83.3244 7.14421 86.7069C4.22045 88.4588 1.7834 91.7467 0.78154 95.9328C-0.939707 102.954 2.06759 109.76 7.51556 111.106C12.9562 112.396 18.77 107.755 20.4913 100.733C21.4244 96.8985 20.934 93.1353 19.4753 90.298C19.4753 90.298 18.2172 83.7217 22.3828 73.4684C22.6894 72.743 26.5 63 26.5 63ZM18.3601 100.211C19.7571 94.6595 17.3419 89.3194 13.0796 88.2754C8.81723 87.2315 4.2534 90.9107 2.85635 96.4621C1.4593 102.013 3.8745 107.354 8.13686 108.398C12.3992 109.442 17.0194 105.755 18.3601 100.211Z" fill="#FF7E6B"/>
<path d="M20.8345 62.5694C20.8345 63.7581 21.8014 64.7218 22.994 64.7218C24.1867 64.7218 25.1536 63.7581 25.1536 62.5694C25.1536 61.3807 24.1867 60.417 22.994 60.417C21.8014 60.417 20.8345 61.3807 20.8345 62.5694Z" fill="#FFF4F4"/>
</svg>
