<svg width="118" height="166" viewBox="0 0 118 166" fill="none" xmlns="http://www.w3.org/2000/svg">
<path fill-rule="evenodd" clip-rule="evenodd" d="M158.812 117.882H149.973C159.187 104.481 164.599 88.945 164.599 75.333C164.599 34.3447 130.077 1 87.6418 1C66.3833 1 46.0063 9.57486 31.4864 24.5399L17.4644 18.5216C15.7454 17.7836 13.9472 17.8774 12.5239 18.7647C11.0977 19.6609 10.2836 21.213 10.2836 23.0258V40.2956C8.4415 41.3323 7.18807 43.2417 7.18807 45.444V69.3529C3.77629 69.3558 1 72.0384 1 75.333V159.023C1 162.317 3.77629 165 7.18807 165H44.3194C46.8936 165 49.1018 163.474 50.0331 161.307H143.809C155.491 161.307 164.997 152.126 164.997 140.845V123.859C165 120.565 162.224 117.882 158.812 117.882ZM87.6418 6.97721C126.665 6.97721 158.411 37.6423 158.411 75.333C158.411 91.2234 150.328 107.486 142.453 117.882H136.335C144.945 107.647 153.596 91.7506 153.596 75.333C153.596 40.2106 124.009 11.6307 87.6447 11.6307C69.7043 11.6307 52.906 18.5246 40.5445 30.7396C39.8797 29.2929 38.7756 28.0014 37.4314 27.1785C50.6715 14.3074 68.7847 6.97721 87.6418 6.97721ZM35.0359 33.6536C35.0359 33.1967 34.4794 32.3679 34.046 32.1834L16.4716 24.6365V39.4639H35.0359V33.6536ZM13.3791 45.4469H38.1343V69.3558H13.3791V45.4469ZM7.18807 159.023H44.3194V75.333H38.1314H13.3761H7.18807V159.023ZM41.2269 40.2985V38.9982C52.6454 25.4009 69.4905 17.6079 87.6418 17.6079C120.594 17.6079 147.405 43.5053 147.405 75.333C147.405 92.2689 137.105 108.733 128.285 117.686L128.498 117.882H50.5104V75.333C50.5104 72.0384 47.7341 69.3558 44.3224 69.3558V45.4469C44.3194 43.2446 43.066 41.3352 41.2269 40.2985ZM143.812 155.33C152.085 155.33 158.812 148.834 158.812 140.845V123.859H50.5104V155.33H143.812ZM69.0937 102.753C69.943 102.753 70.7864 102.422 71.3955 101.764L127.094 41.9884C128.239 40.7614 128.134 38.8695 126.866 37.7684C125.595 36.6643 123.635 36.7609 122.496 37.988L66.7947 97.766C65.6497 98.9931 65.7551 100.882 67.0261 101.986C67.6147 102.499 68.3557 102.753 69.0937 102.753ZM87.746 94.8863L124.88 53.0429C125.99 51.7894 127.946 51.6459 129.241 52.7207C130.541 53.7926 130.691 55.6786 129.578 56.932L92.4463 98.7754C91.8343 99.4666 90.9645 99.818 90.0947 99.818C89.3801 99.818 88.6626 99.5808 88.0798 99.0976C86.7825 98.0228 86.6331 96.1397 87.746 94.8863Z" fill="white"/>
<path d="M149.973 117.882L149.561 117.599L149.023 118.382H149.973V117.882ZM31.4864 24.5399L31.2892 24.9993L31.6056 25.1351L31.8453 24.888L31.4864 24.5399ZM17.4644 18.5216L17.2672 18.9811L17.2672 18.9811L17.4644 18.5216ZM12.5239 18.7647L12.2594 18.3404L12.2579 18.3414L12.5239 18.7647ZM10.2836 40.2956L10.5288 40.7313L10.7836 40.5879V40.2956H10.2836ZM7.18807 69.3529L7.1885 69.8529L7.68807 69.8524V69.3529H7.18807ZM50.0331 161.307V160.807H49.7037L49.5737 161.11L50.0331 161.307ZM164.997 123.859L164.497 123.859V123.859H164.997ZM142.453 117.882V118.382H142.701L142.852 118.184L142.453 117.882ZM136.335 117.882L135.953 117.56L135.261 118.382H136.335V117.882ZM40.5445 30.7396L40.0902 30.9484L40.3882 31.597L40.8959 31.0953L40.5445 30.7396ZM37.4314 27.1785L37.0829 26.82L36.6213 27.2688L37.1704 27.6049L37.4314 27.1785ZM34.046 32.1834L33.8487 32.6429L33.8502 32.6435L34.046 32.1834ZM16.4716 24.6365L16.6689 24.1771L15.9716 23.8776V24.6365H16.4716ZM16.4716 39.4639H15.9716V39.9639H16.4716V39.4639ZM35.0359 39.4639V39.9639H35.5359V39.4639H35.0359ZM38.1343 45.4469H38.6343V44.9469H38.1343V45.4469ZM13.3791 45.4469V44.9469H12.8791V45.4469H13.3791ZM38.1343 69.3558V69.8558H38.6343V69.3558H38.1343ZM13.3791 69.3558H12.8791V69.8558H13.3791V69.3558ZM44.3194 159.023V159.523H44.8194V159.023H44.3194ZM7.18807 159.023H6.68807V159.523H7.18807V159.023ZM44.3194 75.333H44.8194V74.833H44.3194V75.333ZM7.18807 75.333V74.833H6.68807V75.333H7.18807ZM41.2269 38.9982L40.844 38.6767L40.7269 38.8161V38.9982H41.2269ZM41.2269 40.2985H40.7269V40.5906L40.9813 40.7341L41.2269 40.2985ZM128.285 117.686L127.928 117.335L127.565 117.704L127.946 118.054L128.285 117.686ZM128.498 117.882V118.382H129.783L128.836 117.514L128.498 117.882ZM50.5104 117.882H50.0104V118.382H50.5104V117.882ZM44.3224 69.3558H43.8224V69.8558H44.3224V69.3558ZM44.3224 45.4469H44.8224V45.4463L44.3224 45.4469ZM158.812 123.859H159.312V123.359H158.812V123.859ZM50.5104 123.859V123.359H50.0104V123.859H50.5104ZM50.5104 155.33H50.0104V155.83H50.5104V155.33ZM71.3955 101.764L71.0297 101.423L71.0284 101.424L71.3955 101.764ZM127.094 41.9884L126.728 41.6473L126.728 41.6476L127.094 41.9884ZM126.866 37.7684L126.538 38.1459L126.538 38.1459L126.866 37.7684ZM122.496 37.988L122.862 38.3289L122.863 38.3282L122.496 37.988ZM66.7947 97.766L67.1603 98.1071L67.1606 98.1069L66.7947 97.766ZM67.0261 101.986L67.3544 101.609L67.354 101.609L67.0261 101.986ZM124.88 53.0429L125.254 53.3748L125.255 53.3743L124.88 53.0429ZM87.746 94.8863L88.1199 95.2183L88.1199 95.2182L87.746 94.8863ZM129.241 52.7207L128.922 53.1054L128.923 53.1065L129.241 52.7207ZM129.578 56.932L129.204 56.6L129.204 56.6001L129.578 56.932ZM92.4463 98.7754L92.0723 98.4436L92.072 98.4439L92.4463 98.7754ZM88.0798 99.0976L88.399 98.7127L88.3988 98.7125L88.0798 99.0976ZM149.973 118.382H158.812V117.382H149.973V118.382ZM164.099 75.333C164.099 88.8233 158.73 104.262 149.561 117.599L150.386 118.165C159.643 104.7 165.099 89.0667 165.099 75.333H164.099ZM87.6418 1.5C129.817 1.5 164.099 34.6371 164.099 75.333H165.099C165.099 34.0524 130.336 0.5 87.6418 0.5V1.5ZM31.8453 24.888C46.2695 10.0216 66.5164 1.5 87.6418 1.5V0.5C66.2502 0.5 45.7431 9.12811 31.1276 24.1917L31.8453 24.888ZM17.2672 18.9811L31.2892 24.9993L31.6836 24.0804L17.6616 18.0622L17.2672 18.9811ZM12.7885 19.189C14.0566 18.3984 15.6801 18.2997 17.2672 18.9811L17.6617 18.0622C15.8107 17.2675 13.8378 17.3564 12.2594 18.3404L12.7885 19.189ZM10.7836 23.0258C10.7836 21.3686 11.5227 19.9843 12.7899 19.1881L12.2579 18.3414C10.6727 19.3374 9.78357 21.0574 9.78357 23.0258H10.7836ZM10.7836 40.2956V23.0258H9.78357V40.2956H10.7836ZM7.68807 45.444C7.68807 43.4398 8.82823 41.6884 10.5288 40.7313L10.0383 39.8598C8.05477 40.9762 6.68807 43.0436 6.68807 45.444H7.68807ZM7.68807 69.3529V45.444H6.68807V69.3529H7.68807ZM1.5 75.333C1.5 72.3307 4.03602 69.8556 7.1885 69.8529L7.18764 68.8529C3.51656 68.856 0.5 71.746 0.5 75.333H1.5ZM1.5 159.023V75.333H0.5V159.023H1.5ZM7.18807 164.5C4.036 164.5 1.5 162.025 1.5 159.023H0.5C0.5 162.61 3.51657 165.5 7.18807 165.5V164.5ZM44.3194 164.5H7.18807V165.5H44.3194V164.5ZM49.5737 161.11C48.7213 163.093 46.6938 164.5 44.3194 164.5V165.5C47.0935 165.5 49.4823 163.855 50.4925 161.504L49.5737 161.11ZM143.809 160.807H50.0331V161.807H143.809V160.807ZM164.497 140.845C164.497 151.834 155.231 160.807 143.809 160.807V161.807C155.75 161.807 165.497 152.418 165.497 140.845H164.497ZM164.497 123.859V140.845H165.497V123.859H164.497ZM158.812 118.382C161.964 118.382 164.5 120.857 164.497 123.859L165.497 123.86C165.5 120.272 162.483 117.382 158.812 117.382V118.382ZM158.911 75.333C158.911 37.3499 126.925 6.47721 87.6418 6.47721V7.47721C126.405 7.47721 157.911 37.9346 157.911 75.333H158.911ZM142.852 118.184C150.763 107.74 158.911 91.3731 158.911 75.333H157.911C157.911 91.0738 149.893 107.232 142.054 117.58L142.852 118.184ZM136.335 118.382H142.453V117.382H136.335V118.382ZM153.096 75.333C153.096 91.5893 144.52 107.375 135.953 117.56L136.718 118.204C145.37 107.919 154.096 91.9118 154.096 75.333H153.096ZM87.6447 12.1307C123.749 12.1307 153.096 40.503 153.096 75.333H154.096C154.096 39.9183 124.268 11.1307 87.6447 11.1307V12.1307ZM40.8959 31.0953C53.1622 18.9743 69.8335 12.1307 87.6447 12.1307V11.1307C69.5751 11.1307 52.6498 18.0748 40.1931 30.384L40.8959 31.0953ZM37.1704 27.6049C38.4238 28.3723 39.4636 29.585 40.0902 30.9484L40.9988 30.5309C40.2958 29.0009 39.1275 27.6306 37.6925 26.7521L37.1704 27.6049ZM87.6418 6.47721C68.6564 6.47721 50.4176 13.8569 37.0829 26.82L37.7799 27.537C50.9254 14.758 68.913 7.47721 87.6418 7.47721V6.47721ZM33.8502 32.6435C33.9316 32.6782 34.1119 32.8327 34.2886 33.0954C34.3692 33.2152 34.4349 33.3372 34.479 33.4455C34.5258 33.5605 34.5359 33.6299 34.5359 33.6536H35.5359C35.5359 33.4488 35.4764 33.2433 35.4053 33.0686C35.3315 32.8873 35.231 32.7049 35.1183 32.5373C34.9085 32.2253 34.5938 31.8732 34.2418 31.7234L33.8502 32.6435ZM16.2744 25.0959L33.8487 32.6429L34.2433 31.724L16.6689 24.1771L16.2744 25.0959ZM16.9716 39.4639V24.6365H15.9716V39.4639H16.9716ZM35.0359 38.9639H16.4716V39.9639H35.0359V38.9639ZM34.5359 33.6536V39.4639H35.5359V33.6536H34.5359ZM38.1343 44.9469H13.3791V45.9469H38.1343V44.9469ZM38.6343 69.3558V45.4469H37.6343V69.3558H38.6343ZM13.3791 69.8558H38.1343V68.8558H13.3791V69.8558ZM12.8791 45.4469V69.3558H13.8791V45.4469H12.8791ZM44.3194 158.523H7.18807V159.523H44.3194V158.523ZM43.8194 75.333V159.023H44.8194V75.333H43.8194ZM38.1314 75.833H44.3194V74.833H38.1314V75.833ZM13.3761 75.833H38.1314V74.833H13.3761V75.833ZM7.18807 75.833H13.3761V74.833H7.18807V75.833ZM7.68807 159.023V75.333H6.68807V159.023H7.68807ZM40.7269 38.9982V40.2985H41.7269V38.9982H40.7269ZM87.6418 17.1079C69.3457 17.1079 52.3593 24.964 40.844 38.6767L41.6098 39.3198C52.9314 25.8377 69.6353 18.1079 87.6418 18.1079V17.1079ZM147.905 75.333C147.905 43.2129 120.854 17.1079 87.6418 17.1079V18.1079C120.334 18.1079 146.905 43.7976 146.905 75.333H147.905ZM128.641 118.037C137.512 109.033 147.905 92.4492 147.905 75.333H146.905C146.905 92.0887 136.698 108.434 127.928 117.335L128.641 118.037ZM128.836 117.514L128.623 117.318L127.946 118.054L128.16 118.251L128.836 117.514ZM50.5104 118.382H128.498V117.382H50.5104V118.382ZM50.0104 75.333V117.882H51.0104V75.333H50.0104ZM44.3224 69.8558C47.4744 69.8558 50.0104 72.3307 50.0104 75.333H51.0104C51.0104 71.7461 47.9939 68.8558 44.3224 68.8558V69.8558ZM43.8224 45.4469V69.3558H44.8224V45.4469H43.8224ZM40.9813 40.7341C42.6791 41.6911 43.8197 43.4428 43.8224 45.4476L44.8224 45.4463C44.8192 43.0465 43.4529 40.9793 41.4724 39.8629L40.9813 40.7341ZM158.312 140.845C158.312 148.542 151.825 154.83 143.812 154.83V155.83C152.345 155.83 159.312 149.127 159.312 140.845H158.312ZM158.312 123.859V140.845H159.312V123.859H158.312ZM50.5104 124.359H158.812V123.359H50.5104V124.359ZM51.0104 155.33V123.859H50.0104V155.33H51.0104ZM143.812 154.83H50.5104V155.83H143.812V154.83ZM71.0284 101.424C70.521 101.973 69.8145 102.253 69.0937 102.253V103.253C70.0715 103.253 71.0517 102.872 71.7627 102.103L71.0284 101.424ZM126.728 41.6476L71.0297 101.423L71.7613 102.104L127.46 42.3293L126.728 41.6476ZM126.538 38.1459C127.594 39.0627 127.679 40.6288 126.728 41.6473L127.46 42.3296C128.799 40.894 128.674 38.6763 127.193 37.3909L126.538 38.1459ZM122.863 38.3282C123.816 37.3013 125.468 37.2164 126.538 38.1459L127.193 37.3909C125.721 36.1122 123.455 36.2206 122.13 37.6478L122.863 38.3282ZM67.1606 98.1069L122.862 38.3289L122.13 37.6472L66.4289 97.4252L67.1606 98.1069ZM67.354 101.609C66.2948 100.689 66.2102 99.1253 67.1603 98.1071L66.4292 97.4249C65.0892 98.8609 65.2154 101.076 66.6982 102.364L67.354 101.609ZM69.0937 102.253C68.4698 102.253 67.8472 102.038 67.3544 101.609L66.6978 102.363C67.3823 102.959 68.2416 103.253 69.0937 103.253V102.253ZM124.506 52.711L87.372 94.5544L88.1199 95.2182L125.254 53.3748L124.506 52.711ZM129.56 52.336C128.06 51.0906 125.797 51.2538 124.506 52.7114L125.255 53.3743C126.184 52.3251 127.833 52.2013 128.922 53.1054L129.56 52.336ZM129.952 57.264C131.254 55.7973 131.076 53.5858 129.559 52.3349L128.923 53.1065C130.006 53.9993 130.127 55.5599 129.204 56.6L129.952 57.264ZM92.8203 99.1073L129.952 57.2639L129.204 56.6001L92.0723 98.4436L92.8203 99.1073ZM90.0947 100.318C91.0968 100.318 92.1067 99.9131 92.8206 99.1069L92.072 98.4439C91.5618 99.0201 90.8322 99.318 90.0947 99.318V100.318ZM87.7607 99.4825C88.438 100.044 89.27 100.318 90.0947 100.318V99.318C89.4902 99.318 88.8872 99.1175 88.399 98.7127L87.7607 99.4825ZM87.3721 94.5543C86.0697 96.0212 86.2477 98.229 87.7608 99.4826L88.3988 98.7125C87.3173 97.8166 87.1965 96.2583 88.1199 95.2183L87.3721 94.5543Z" fill="#F2F0F0"/>
</svg>
