<svg width="130" height="163" viewBox="0 0 130 163" fill="none" xmlns="http://www.w3.org/2000/svg">
<g clip-path="url(#clip0)">
<path fill-rule="evenodd" clip-rule="evenodd" d="M88.0375 162.869C45.0129 162.869 10.0085 127.907 10.0085 84.9344C10.0085 41.962 45.0129 7 88.0375 7C131.062 7 166.066 41.962 166.066 84.9344C166.066 127.907 131.062 162.869 88.0375 162.869ZM88.0375 11.9878C78.3204 11.9878 69.0404 13.8932 60.5522 17.3494C58.776 21.032 51.5651 38.3578 58.6933 63.7754C60.7184 62.199 62.8468 60.6758 65.0832 59.2198C72.1643 54.6093 79.8068 51.0194 87.9894 48.4528C86.1842 40.6115 87.358 34.1437 91.4882 29.2007C98.0064 21.4012 110.473 19.4044 119.385 19.054C109.881 14.5247 99.2506 11.9878 88.0375 11.9878ZM67.8098 63.3971C74.4768 59.0559 81.6844 55.6696 89.4125 53.2404C100.362 83.1527 145.945 98.7386 159.211 101.337C154.744 120.683 142.551 137.112 126.064 147.194C86.0152 117.905 67.8119 90.7603 60.2913 68.8935C62.6437 66.9723 65.147 65.1309 67.8098 63.3971ZM94.2321 51.8668C104.651 79.4744 149.082 94.4892 160.155 96.506C160.759 92.7364 161.073 88.8713 161.073 84.9344C161.073 73.1827 158.276 62.0709 153.312 52.2284C131.306 47.5394 111.542 47.4275 94.2321 51.8668ZM95.321 32.4029C92.2968 36.0257 91.454 40.9561 92.8029 47.077C109.766 42.6896 128.92 42.4868 150.086 46.4921C144.555 37.6185 137.17 30.0118 128.477 24.2166C124.62 23.9061 103.433 22.6816 95.321 32.4029ZM56.092 72.5485C63.9537 93.635 81.9647 120.699 121.287 149.874C111.309 154.991 100.005 157.881 88.0375 157.881C74.9231 157.881 62.6048 154.411 51.9548 148.341C57.27 124.27 60.061 99.811 47.1647 82.0683C49.8229 78.8152 52.7885 75.6093 56.092 72.5485ZM43.9627 86.2028C54.4616 101.908 52.1448 123.764 47.4522 145.554C38.9124 139.832 31.6425 132.359 26.1622 123.654C27.1767 119.495 31.7981 102.776 43.9627 86.2028ZM40.7174 82.0788C30.3269 95.7835 25.0429 109.697 22.6728 117.462C18.5565 109.243 15.949 100.145 15.2152 90.5319C18.2772 86.5706 25.7446 78.747 32.8054 78.5375C35.6977 78.4342 38.2958 79.6092 40.7174 82.0788ZM43.842 78.1563C40.5331 74.9838 36.7798 73.4534 32.6556 73.5497C25.6066 73.7589 19.137 78.9648 15.0229 83.1906C15.6642 56.0241 31.2505 32.4844 53.8683 20.4752C51.5096 27.334 48.8685 39.4399 51.47 55.3792C52.0712 59.0669 52.9868 63.0832 54.3272 67.39C50.4117 70.834 46.9312 74.4651 43.842 78.1563Z" fill="white"/>
</g>
<defs>
<clipPath id="clip0">
<rect width="165" height="163" fill="white"/>
</clipPath>
</defs>
</svg>
